<?xml version="1.0" encoding="UTF-8" standalone="no"?>
<!DOCTYPE svg PUBLIC "-//W3C//DTD SVG 1.1//EN"
 "http://www.w3.org/Graphics/SVG/1.1/DTD/svg11.dtd">
<!-- Generated by graphviz version 2.43.0 (0)
 -->
<!-- Title: %3 Pages: 1 -->
<svg width="579pt" height="628pt"
 viewBox="0.00 0.00 578.86 628.00" xmlns="http://www.w3.org/2000/svg" xmlns:xlink="http://www.w3.org/1999/xlink">
<g id="graph0" class="graph" transform="scale(1 1) rotate(0) translate(4 624)">
<title>%3</title>
<polygon fill="white" stroke="transparent" points="-4,4 -4,-624 574.86,-624 574.86,4 -4,4"/>
<!-- Start -->
<g id="node1" class="node">
<title>Start</title>
<ellipse fill="lightgreen" stroke="black" cx="386.86" cy="-602" rx="72.29" ry="18"/>
<text text-anchor="middle" x="386.86" y="-598.3" font-family="Times,serif" font-size="14.00">Start System</text>
</g>
<!-- Temp_Hum -->
<g id="node2" class="node">
<title>Temp_Hum</title>
<polygon fill="none" stroke="black" points="490.33,-547 110.98,-547 13.39,-511 392.74,-511 490.33,-547"/>
<text text-anchor="middle" x="251.86" y="-525.3" font-family="Times,serif" font-size="14.00">Read Temp &amp; Humidity (DHT11)</text>
</g>
<!-- Start&#45;&gt;Temp_Hum -->
<g id="edge1" class="edge">
<title>Start&#45;&gt;Temp_Hum</title>
<path fill="none" stroke="black" d="M357.23,-585.42C338.44,-575.53 313.85,-562.6 293.15,-551.72"/>
<polygon fill="black" stroke="black" points="294.73,-548.59 284.25,-547.04 291.47,-554.79 294.73,-548.59"/>
</g>
<!-- Water_Level -->
<g id="node3" class="node">
<title>Water_Level</title>
<polygon fill="none" stroke="black" points="491.58,-474 100.69,-474 0.14,-438 391.02,-438 491.58,-474"/>
<text text-anchor="middle" x="245.86" y="-452.3" font-family="Times,serif" font-size="14.00">Measure Water Level (Ultrasonic)</text>
</g>
<!-- Temp_Hum&#45;&gt;Water_Level -->
<g id="edge2" class="edge">
<title>Temp_Hum&#45;&gt;Water_Level</title>
<path fill="none" stroke="black" d="M250.41,-510.81C249.73,-502.79 248.9,-493.05 248.15,-484.07"/>
<polygon fill="black" stroke="black" points="251.63,-483.7 247.3,-474.03 244.65,-484.29 251.63,-483.7"/>
</g>
<!-- Turbidity -->
<g id="node4" class="node">
<title>Turbidity</title>
<polygon fill="none" stroke="black" points="472.7,-401 204.11,-401 135.02,-365 403.61,-365 472.7,-401"/>
<text text-anchor="middle" x="303.86" y="-379.3" font-family="Times,serif" font-size="14.00">Read Turbidity Sensor</text>
</g>
<!-- Water_Level&#45;&gt;Turbidity -->
<g id="edge3" class="edge">
<title>Water_Level&#45;&gt;Turbidity</title>
<path fill="none" stroke="black" d="M259.9,-437.81C266.95,-429.18 275.63,-418.56 283.41,-409.03"/>
<polygon fill="black" stroke="black" points="286.33,-410.99 289.95,-401.03 280.91,-406.56 286.33,-410.99"/>
</g>
<!-- pH -->
<g id="node5" class="node">
<title>pH</title>
<polygon fill="none" stroke="black" points="450.02,-328 227.05,-328 169.69,-292 392.66,-292 450.02,-328"/>
<text text-anchor="middle" x="309.86" y="-306.3" font-family="Times,serif" font-size="14.00">Measure pH Level</text>
</g>
<!-- Turbidity&#45;&gt;pH -->
<g id="edge4" class="edge">
<title>Turbidity&#45;&gt;pH</title>
<path fill="none" stroke="black" d="M305.31,-364.81C305.99,-356.79 306.81,-347.05 307.57,-338.07"/>
<polygon fill="black" stroke="black" points="311.06,-338.29 308.42,-328.03 304.09,-337.7 311.06,-338.29"/>
</g>
<!-- LED_Control -->
<g id="node6" class="node">
<title>LED_Control</title>
<polygon fill="none" stroke="black" points="328.86,-255 176.2,-237 328.86,-219 481.52,-237 328.86,-255"/>
<text text-anchor="middle" x="328.86" y="-233.3" font-family="Times,serif" font-size="14.00">Adjust LED Intensity</text>
</g>
<!-- pH&#45;&gt;LED_Control -->
<g id="edge5" class="edge">
<title>pH&#45;&gt;LED_Control</title>
<path fill="none" stroke="black" d="M314.46,-291.81C316.66,-283.58 319.35,-273.54 321.8,-264.38"/>
<polygon fill="black" stroke="black" points="325.23,-265.1 324.43,-254.54 318.47,-263.3 325.23,-265.1"/>
</g>
<!-- Pump_Control -->
<g id="node7" class="node">
<title>Pump_Control</title>
<polygon fill="none" stroke="black" points="335.86,-182 186.21,-164 335.86,-146 485.5,-164 335.86,-182"/>
<text text-anchor="middle" x="335.86" y="-160.3" font-family="Times,serif" font-size="14.00">Control Water Pump</text>
</g>
<!-- LED_Control&#45;&gt;Pump_Control -->
<g id="edge6" class="edge">
<title>LED_Control&#45;&gt;Pump_Control</title>
<path fill="none" stroke="black" d="M330.52,-219.17C331.31,-211.16 332.27,-201.36 333.16,-192.32"/>
<polygon fill="black" stroke="black" points="336.66,-192.49 334.16,-182.2 329.7,-191.81 336.66,-192.49"/>
</g>
<!-- Data_Process -->
<g id="node8" class="node">
<title>Data_Process</title>
<polygon fill="lightblue" stroke="black" points="475.36,-109 290.36,-109 290.36,-73 475.36,-73 475.36,-109"/>
<text text-anchor="middle" x="382.86" y="-87.3" font-family="Times,serif" font-size="14.00">Process Data &amp; Display</text>
</g>
<!-- Pump_Control&#45;&gt;Data_Process -->
<g id="edge7" class="edge">
<title>Pump_Control&#45;&gt;Data_Process</title>
<path fill="none" stroke="black" d="M346.29,-147.24C352.06,-138.52 359.38,-127.47 365.95,-117.55"/>
<polygon fill="black" stroke="black" points="368.87,-119.47 371.47,-109.2 363.03,-115.61 368.87,-119.47"/>
</g>
<!-- End -->
<g id="node9" class="node">
<title>End</title>
<ellipse fill="lightgreen" stroke="black" cx="450.86" cy="-18" rx="109.68" ry="18"/>
<text text-anchor="middle" x="450.86" y="-14.3" font-family="Times,serif" font-size="14.00">End Process / Repeat</text>
</g>
<!-- Data_Process&#45;&gt;End -->
<g id="edge8" class="edge">
<title>Data_Process&#45;&gt;End</title>
<path fill="none" stroke="black" d="M399.32,-72.81C407.76,-64 418.18,-53.13 427.43,-43.46"/>
<polygon fill="black" stroke="black" points="430.16,-45.67 434.55,-36.03 425.1,-40.83 430.16,-45.67"/>
</g>
<!-- End&#45;&gt;Start -->
<g id="edge9" class="edge">
<title>End&#45;&gt;Start</title>
<path fill="none" stroke="black" stroke-dasharray="5,2" d="M481.73,-35.5C500.1,-47.77 519.86,-66.45 519.86,-90 519.86,-530 519.86,-530 519.86,-530 519.86,-562.14 489.26,-579.78 457.41,-589.44"/>
<polygon fill="black" stroke="black" points="456.22,-586.14 447.52,-592.19 458.09,-592.89 456.22,-586.14"/>
<text text-anchor="middle" x="545.36" y="-306.3" font-family="Times,serif" font-size="14.00">Repeat</text>
</g>
</g>
</svg>
